<?xml version="1.0" encoding="UTF-8" standalone="no"?>
<svg
   viewBox="0 0 64 64"
   version="1.1"
   id="svg8"
   sodipodi:docname="cockpit.svg"
   width="64"
   height="64"
   inkscape:version="1.1 (c4e8f9ed74, 2021-05-24)"
   xmlns:inkscape="http://www.inkscape.org/namespaces/inkscape"
   xmlns:sodipodi="http://sodipodi.sourceforge.net/DTD/sodipodi-0.dtd"
   xmlns="http://www.w3.org/2000/svg"
   xmlns:svg="http://www.w3.org/2000/svg">
  <defs
     id="defs12" />
  <sodipodi:namedview
     id="namedview10"
     pagecolor="#ffffff"
     bordercolor="#666666"
     borderopacity="1.0"
     inkscape:pageshadow="2"
     inkscape:pageopacity="0.0"
     inkscape:pagecheckerboard="0"
     showgrid="false"
     width="64px"
     inkscape:zoom="4.6071429"
     inkscape:cx="72.279069"
     inkscape:cy="96.480619"
     inkscape:window-width="2560"
     inkscape:window-height="1349"
     inkscape:window-x="0"
     inkscape:window-y="0"
     inkscape:window-maximized="1"
     inkscape:current-layer="svg8" />
  <g
     fill="#fff"
     stroke-width="1.369"
     id="g6"
     style="fill:#4180ad;fill-opacity:1">
    <path
       d="m 32.2,0 c -17.646,0 -32,14.353 -32,32 0,17.647 14.354,32 32,32 17.646,0 32,-14.354 32,-32 0,-17.646 -14.354,-32 -32,-32 z m 0,4.795 c 15.057,0 27.218,12.148 27.218,27.204 0,15.056 -12.161,27.205 -27.218,27.205 C 17.144,59.204 4.996,47.056 4.996,32 4.996,16.944 17.144,4.795 32.2,4.795 Z"
       color="#000000"
       style="text-indent:0;text-decoration-line:none;text-transform:none;fill:#4180ad;fill-opacity:1"
       id="path2" />
    <path
       d="m 42.907,18.892 c -1.306,-0.048 -3.285,0.978 -5.064,2.747 l -3.836,3.815 -11.496,-3.86 -2.242,2.314 8.668,6.587 -1.938,1.928 a 12.659,12.659 0 0 0 -1.704,2.098 l -5.223,-0.39 -1.274,1.292 5.194,3.846 3.798,5.184 1.28,-1.283 -0.386,-5.274 c 0.658,-0.431 1.33,-0.966 1.977,-1.61 l 2.04,-2.029 6.652,8.735 2.314,-2.242 -3.878,-11.552 3.716,-3.695 c 2.372,-2.36 3.465,-5.121 2.451,-6.191 -0.253,-0.268 -0.613,-0.404 -1.049,-0.42 z m 117.944,-7.674 c -1.9,0 -3.638,0.216 -5.267,0.65 -8.852,2.444 -13.196,10.97 -12.979,19.278 0.272,8.472 5.213,16.727 14.933,18.356 1.14,0.217 2.39,0.325 3.693,0.271 1.358,0.054 2.662,-0.108 3.91,-0.271 10.48,-1.792 15.748,-10.645 15.585,-19.441 -0.163,-8.146 -5.05,-16.182 -14.825,-18.3 a 24.82,24.82 0 0 0 -5.05,-0.543 z m -41.456,0.271 c -7.983,-0.271 -15.748,4.128 -19.332,11.784 -4.778,10.264 -1.031,20.364 9.015,25.523 4.507,2.389 16.02,2.878 22.645,-3.258 l -3.26,-3.64 c -4.778,3.64 -10.967,5.16 -16.67,2.444 -7.493,-3.53 -10.697,-11.511 -7.167,-19.005 2.66,-5.593 8.85,-9.34 14.715,-9.123 2.118,0.055 6.626,1.248 7.712,2.714 l 3.802,-3.42 c -1.358,-1.25 -1.63,-1.466 -3.368,-2.28 h -0.054 c -2.553,-1.195 -5.376,-1.63 -8.037,-1.739 z m 93.55,0 c -7.983,-0.271 -15.748,4.128 -19.332,11.784 -4.779,10.264 -1.032,20.364 9.015,25.523 4.507,2.389 16.019,2.878 22.643,-3.258 l -3.258,-3.64 c -4.778,3.64 -10.968,5.16 -16.67,2.444 -7.494,-3.53 -10.699,-11.511 -7.169,-19.005 2.66,-5.593 8.852,-9.34 14.717,-9.123 2.118,0.055 6.626,1.248 7.712,2.714 l 3.8,-3.42 c -1.358,-1.25 -1.629,-1.466 -3.366,-2.28 h -0.054 c -2.553,-1.195 -5.377,-1.63 -8.037,-1.739 z m 106.657,0.38 0.056,37.687 h 4.887 L 324.489,11.869 Z M 282.3,12.031 v 37.525 l 5.05,-0.11 V 33.209 l 5.702,-0.054 c 14.825,0.108 14.663,-21.342 0.49,-21.07 z m 56.938,0.327 v 4.344 l 9.883,0.054 -0.164,32.8 v 0.109 l 5.051,-0.055 0.163,-32.854 9.882,-0.054 v -4.344 z m -100.476,0.054 v 37.361 h 5.05 v -19.55 l 17.918,19.55 h 6.246 l -18.354,-19.821 15.095,-17.54 h -6.136 l -14.77,17.594 V 12.412 Z m -78.287,3.15 c 1.466,0 2.823,0.162 4.018,0.38 7.114,1.574 10.698,7.494 10.97,13.576 0.271,6.95 -3.638,14.173 -11.403,15.476 -0.869,0.163 -1.793,0.271 -2.716,0.271 -1.14,0 -2.172,-0.108 -3.095,-0.325 -6.57,-1.466 -10.1,-7.44 -10.536,-13.63 -0.434,-6.517 2.499,-13.197 8.906,-15.151 1.14,-0.38 2.444,-0.597 3.856,-0.597 z m 126.88,0.923 6.137,0.054 c 7.548,0.163 6.951,12.164 -0.271,12.164 h -5.865 z"
       id="path4"
       style="fill:#4180ad;fill-opacity:1" />
  </g>
</svg>
