<?xml version="1.0" encoding="UTF-8" standalone="no"?>
<svg
   viewBox="0 0 55.768661 63.999999"
   version="1.1"
   id="svg18"
   sodipodi:docname="nginx-logo.svg"
   width="55.768661"
   height="64"
   inkscape:version="1.1 (c4e8f9ed74, 2021-05-24)"
   xmlns:inkscape="http://www.inkscape.org/namespaces/inkscape"
   xmlns:sodipodi="http://sodipodi.sourceforge.net/DTD/sodipodi-0.dtd"
   xmlns:xlink="http://www.w3.org/1999/xlink"
   xmlns="http://www.w3.org/2000/svg"
   xmlns:svg="http://www.w3.org/2000/svg"
   xmlns:rdf="http://www.w3.org/1999/02/22-rdf-syntax-ns#"
   xmlns:cc="http://creativecommons.org/ns#"
   xmlns:dc="http://purl.org/dc/elements/1.1/">
  <metadata
     id="metadata24">
    <rdf:RDF>
      <cc:Work
         rdf:about="">
        <dc:format>image/svg+xml</dc:format>
        <dc:type
           rdf:resource="http://purl.org/dc/dcmitype/StillImage" />
      </cc:Work>
    </rdf:RDF>
  </metadata>
  <defs
     id="defs22">
    <rect
       id="SVGID_1_"
       x="-745.5"
       y="-514"
       width="1400"
       height="1060" />
  </defs>
  <sodipodi:namedview
     pagecolor="#ffffff"
     bordercolor="#666666"
     borderopacity="1"
     objecttolerance="10"
     gridtolerance="10"
     guidetolerance="10"
     inkscape:pageopacity="0"
     inkscape:pageshadow="2"
     inkscape:window-width="2560"
     inkscape:window-height="1349"
     id="namedview20"
     showgrid="false"
     fit-margin-top="0"
     fit-margin-left="0"
     fit-margin-right="0"
     fit-margin-bottom="0"
     inkscape:zoom="2.4930778"
     inkscape:cx="25.67108"
     inkscape:cy="42.718282"
     inkscape:window-x="0"
     inkscape:window-y="0"
     inkscape:window-maximized="1"
     inkscape:current-layer="svg18"
     inkscape:pagecheckerboard="0" />
  <g
     id="g8"
     transform="matrix(2,0,0,2,66.884322,-288)"
     style="stroke:none;stroke-opacity:1">
    <defs
       id="defs3">
      <rect
         id="rect847"
         x="-745.5"
         y="-514"
         width="1400"
         height="1060" />
    </defs>
    <clipPath
       id="SVGID_2_">
      <use
         xlink:href="#SVGID_1_"
         overflow="visible"
         id="use5"
         style="overflow:visible"
         x="0"
         y="0"
         width="100%"
         height="100%" />
    </clipPath>
  </g>
  <g
     id="g14"
     transform="matrix(0.592024,0,0,0.592024,4.4993824,-27.748919)"
     style="stroke:none;stroke-opacity:1"
     inkscape:export-filename="C:\Users\suitedoalex\sites\nginx-logo-15.png"
     inkscape:export-xdpi="86.069847"
     inkscape:export-ydpi="86.069847">
    <path
       d="m -7.6,101 c 0,-8.6 0,-17.2 0,-25.8 0,-1 0.4,-1.7 1.3,-2.2 14.9,-8.6 29.7,-17.1 44.5,-25.7 0.8,-0.5 1.7,-0.6 2.5,-0.1 14.9,8.6 29.8,17.2 44.7,25.8 0.8,0.5 1.2,1.2 1.2,2.2 0,17.2 0,34.3 0,51.5 0,1 -0.4,1.7 -1.2,2.2 -12.8,7.4 -25.6,14.8 -38.4,22.2 -2,1.2 -4.1,2.4 -6.1,3.5 -0.9,0.5 -1.8,0.5 -2.7,0 C 27,148.2 15.9,141.7 4.7,135.3 1,133.2 -2.7,131 -6.4,128.9 c -0.8,-0.5 -1.2,-1.1 -1.2,-2.1 0,-8.6 0,-17.2 0,-25.8 z"
       id="path10"
       inkscape:connector-curvature="0"
       style="fill:#009900;fill-opacity:1;stroke:none;stroke-opacity:1" />
    <path
       d="m 23.9,91.4 c 0,0.1 0,0.3 0,0.4 0,9.9 0,19.8 0,29.7 0,3.4 -2.7,6.4 -6.3,6.3 -2.2,-0.1 -3.9,-1 -5.1,-2.9 -0.6,-0.9 -0.8,-1.9 -0.8,-3 0,-13.9 0,-27.9 0,-41.8 0,-2.8 1.7,-4.8 3.9,-5.7 2.2,-0.9 4.4,-0.7 6.6,0 2.1,0.6 3.7,1.9 5.1,3.5 4.3,5.2 8.7,10.4 13,15.6 4.5,5.4 9.1,10.8 13.6,16.3 0.1,0.1 0.2,0.3 0.4,0.5 0,-0.2 0,-0.4 0,-0.5 0,-10 0,-19.9 0,-29.9 0,-3.2 2.2,-5.7 5.3,-6 3.9,-0.5 6.5,2.3 6.9,5.2 0,0.3 0,0.6 0,0.8 0,11.1 0,22.2 0,33.3 0,2.8 0,5.7 0,8.5 0,2.4 -1.1,4.1 -3.1,5.2 -1.5,0.8 -3.1,1 -4.8,0.9 -2.5,-0.2 -4.7,-1.1 -6.6,-2.8 -1,-0.9 -1.7,-2 -2.6,-3 -4.9,-5.9 -9.8,-11.7 -14.7,-17.6 -3.5,-4.2 -7.1,-8.5 -10.6,-12.7 0,-0.1 -0.1,-0.2 -0.2,-0.3 z"
       id="path12"
       inkscape:connector-curvature="0"
       style="fill:#fefefe;stroke:none;stroke-opacity:1" />
  </g>
</svg>
