<?xml version="1.0" encoding="utf-8"?>
<!-- Svg Vector Icons : http://www.onlinewebfonts.com/icon -->
<!DOCTYPE svg PUBLIC "-//W3C//DTD SVG 1.1//EN" "http://www.w3.org/Graphics/SVG/1.1/DTD/svg11.dtd">
<svg version="1.1" xmlns="http://www.w3.org/2000/svg" xmlns:xlink="http://www.w3.org/1999/xlink" x="0px" y="0px" viewBox="0 0 1000 1000" enable-background="new 0 0 1000 1000" xml:space="preserve">
<metadata> Svg Vector Icons : http://www.onlinewebfonts.com/icon </metadata>
<g><path d="M771.4,556.2c19.9-48.1,30-98.6,30-150.4c0-70-18.5-138.9-53.6-199.1c-34-58.4-82.8-107.4-141-141.8c-14.5-8.6-33.1-3.8-41.7,10.7c-8.6,14.5-3.8,33.1,10.7,41.7c101.6,60.1,164.7,170.6,164.7,288.5c0,49.8-11.1,98.3-32.9,144l-9.3,19.4l230.7,230.7v129.1H800L569.2,698.4l-19.4,9.3c-45.7,21.9-94.2,32.9-144,32.9c-184.6,0-334.9-150.2-334.9-334.8c0-184.6,150.2-334.8,334.9-334.8c16.8,0,30.4-13.6,30.4-30.4c0-16.8-13.6-30.4-30.4-30.4c-53.4,0-105.2,10.5-154.1,31.1c-47.1,19.9-89.4,48.5-125.8,84.8C89.6,162.3,61,204.6,41.1,251.7C20.5,300.5,10,352.3,10,405.8c0,53.4,10.5,105.2,31.1,154c19.9,47.1,48.5,89.4,84.8,125.8c36.3,36.3,78.7,64.9,125.8,84.8c48.8,20.6,100.6,31.1,154.1,31.1c51.8,0,102.3-10.1,150.4-30L774.7,990H990V774.7L771.4,556.2z M253.5,405.7c0,83.9,68.3,152.2,152.2,152.2S558,489.7,558,405.7c0-83.9-68.3-152.2-152.2-152.2C321.8,253.5,253.5,321.8,253.5,405.7z M497.1,405.7c0,50.4-41,91.3-91.3,91.3c-50.4,0-91.3-41-91.3-91.3c0-50.4,41-91.3,91.3-91.3C456.1,314.4,497.1,355.4,497.1,405.7z"/></g>
</svg>